<svg xmlns="http://www.w3.org/2000/svg" width="209.242" height="281.724" viewBox="0 0 209.242 281.724">
  <g id="Group_1351" data-name="Group 1351" transform="translate(-548.523 -108.268)" opacity="0.31">
    <path id="Path_1" data-name="Path 1" d="M301.532,113.47q-23.159-.007-46.318,0c-7.861.006-12.056,3.7-12.1,11.343q-.207,32.759,0,65.52c.043,7.25,4.47,11.325,11.675,11.329q29.655.017,59.31-.032c9.226-.022,14.891-5.767,14.9-14.961,0-5.083-.275-10.187.087-15.245.3-4.144-1.311-5.124-5.128-4.894-5.065.305-10.163.036-15.246.089-6.034.063-11.665-.445-17.215,4.233-6.064,5.114-16.308,2.693-20.572-3.042-4.9-6.6-4.621-17.4,1.091-22.306,6.636-5.7,15.373-6.16,22.634,0a11.857,11.857,0,0,0,8.53,3.063c13.179-.1,26.362.084,39.539-.111,3.511-.052,4.471,1,4.421,4.459-.191,12.989.047,25.984-.111,38.974-.171,14.049-13.593,27.67-27.617,27.777-23.347.177-46.706.471-70.038-.147-13.669-.362-23.767-11.526-24.13-26.4-.578-23.709-.46-47.449-.035-71.166.238-13.287,9.2-25.293,25.281-26.6,28.354-2.3,56.736-.953,85.085-.7,7.61.069,15.581-.224,23.306,1.781,14.663,3.805,26.5,18.234,26.529,33.372.055,24.477.4,48.963-.1,73.429-.46,22.783-15.778,42.324-36.211,50.509a66.005,66.005,0,0,1-25.6,4.435c-16.944-.159-33.892.006-50.836-.109a8.74,8.74,0,0,0-6.947,2.75c-4.587,4.674-11.3,5.547-18,2.363-5.618-2.67-7.622-7.455-8.08-13.583-.554-7.418,2.521-12.718,8.876-15.268,6.469-2.6,13.3-1.971,18.652,3.348a8.259,8.259,0,0,0,6.507,2.425c17.7-.078,35.416.467,53.092-.171,24.142-.87,40.551-18.816,40.679-40.954.124-21.653.035-43.306.024-64.959-.006-12.38-8.261-20.552-20.735-20.554Q324.127,113.473,301.532,113.47Zm-11.981,43.768c-.2-4.219-3.129-6.172-6.15-6.183a6.375,6.375,0,0,0-6.118,6.035c-.038,2.929,1.691,6.213,5.8,6.106C287.062,163.092,288.908,160.668,289.551,157.238Zm-28.469,93.195c.4-5.679-2.6-7.7-5.613-7.746a6.282,6.282,0,0,0-6.192,6.067c-.095,3.432,2.342,5.838,5.988,5.945C259.048,254.81,260.857,252.466,261.082,250.432Z" transform="translate(371.494 59.107)" fill="none" stroke="#97ed12" stroke-width="1"/>
    <path id="Path_4" data-name="Path 4" d="M284.833,62.117c12.238,0,24.477-.041,36.716.033,2.535.015,4.863-.058,6.492-2.381,4.546-6.483,16.65-5.971,21.159-2.314a17.4,17.4,0,0,1,4.12,22.585c-4.5,7.67-16.391,9.393-23.378,3.058a10.708,10.708,0,0,0-7.984-3.011c-22.594.133-45.189.047-67.784.1-19.643.045-35.577,13.632-41.719,31.151-1.378,3.928-1.335,8.443-1.462,12.7-.22,7.337-.076,14.686-.055,22.028.012,4.708-.15,9.008,3.663,13.187,4.771,5.23,4.2,12.588.305,18.034-3.967,5.548-11.55,8.367-17.814,6.623-6.386-1.778-12.076-8.568-11.881-15.273.1-3.37.445-7.363,3.273-9.781,3.146-2.69,3.451-5.861,3.361-9.546-.331-13.467-.582-27.088,2.423-40.2,6.281-27.4,32.036-47.713,58.935-47.06,10.537.257,21.086.043,31.631.043Zm49.255,8.607c.235,3.632,2.006,6.017,5.8,6.029,3.681.012,5.753-2.318,6.2-5.82.337-2.631-4.149-7.113-6.567-6.355C336.741,65.449,333.8,66.812,334.088,70.724ZM201.909,174.082c2.6-.4,5.309-2.058,5.565-5.6.252-3.493-1.738-6.095-5.5-6.262a6.107,6.107,0,0,0-6.474,6.071C195.354,171,197.341,173.894,201.909,174.082Z" transform="translate(366.337 54)" fill="none" stroke="#97ed12" stroke-width="1"/>
    <path id="Path_6" data-name="Path 6" d="M365.584,300.176h-7.142q-70.589.022-141.178.014c-3.265,0-5.89.453-8.6,2.907-4.954,4.486-11.048,4.769-16.992,1.8-5.345-2.667-8.441-6.9-8.677-13.22-.252-6.722,1.591-12,7.966-15.142,7.332-3.609,12.679-3.121,18.791,2.618,2.319,2.179,4.726,1.888,7.279,1.891q65.507.041,131.013-.025c3.99-.008,6.849.391,8.766,4.7C358.94,290.512,362.238,294.782,365.584,300.176Zm-172.513-8.9c.724,2.891,2.386,5.8,6.095,5.448a5.623,5.623,0,0,0,5.3-6.087c-.129-3.638-2.247-6.1-5.853-6.126C194.828,284.482,193.2,287.157,193.072,291.277Z" transform="translate(366.047 82.552)" fill="none" stroke="#97ed12" stroke-width="1"/>
    <path id="Path_11" data-name="Path 11" d="M350.894,304.553c-9.6-12.818-18.821-25.5-21.644-41.5-1.344-7.615,7.729-18.952,15.493-20.724,8.993-2.053,16.786.058,22.467,6.9,6.6,7.953,6.095,17.006,1.7,26.132A158.111,158.111,0,0,1,350.894,304.553Zm8.666-42.506c-.019-5.273-4.14-9.721-8.827-9.529-4.555.188-9.364,5.11-9.332,9.555.027,3.906,5.639,9.389,9.607,9.388C355,271.458,359.575,266.422,359.559,262.047Z" transform="translate(385.06 78.302)" fill="none" stroke="#97ed12" stroke-width="1"/>
    <path id="Path_16" data-name="Path 16" d="M368.751,287.081c1.028,8.35-4.6,11.617-12.319,12.334-2.9.268-4.545-.505-2.373-3.772,2.656-4,5.027-8.184,7.69-12.176,1.162-1.74,2.189-3.948,5.143-3.154,3.2.86,1.35,3.358,1.836,5.084A6.44,6.44,0,0,1,368.751,287.081Z" transform="translate(388.175 83.32)" fill="none" stroke="#97ed12" stroke-width="1"/>
  </g>
</svg>
