<svg xmlns="http://www.w3.org/2000/svg" width="215.661" height="224.154" viewBox="0 0 215.661 224.154">
  <g id="Group_4284" data-name="Group 4284" transform="translate(-747.752 382.518) rotate(180)" opacity="0.18">
    <path id="Path_8860" data-name="Path 8860" d="M-845.228,394.988q-13.816,0-27.63,0c-11.232-.013-17.915-5.786-17.85-15.4.064-9.349,6.842-15.161,17.707-15.165,17.6-.007,35.191.094,52.785-.025a54.264,54.264,0,0,0,51.305-71.476,41.173,41.173,0,0,0-38.526-28.434c-18.142-.207-36.289,0-54.433-.093-8.942-.044-15.579-6.247-15.9-14.554-.305-8.014,5.255-15.466,13.237-15.668,22.111-.56,44.386-2.156,66.318.609,33.267,4.194,57.828,30.326,61.834,63.693,3.9,32.451-7.441,58.9-32.724,79.2-14.381,11.542-31.321,16.88-49.735,17.276C-827.63,395.142-836.431,394.985-845.228,394.988Z" transform="translate(-12.635 -13.021)" fill="none" stroke="#acdee6" stroke-width="1"/>
    <path id="Path_8861" data-name="Path 8861" d="M-909.188,337.141c-12.365,0-24.728.024-37.093-.007s-19.45-9.461-15.445-21.1c7.861-22.85,15.957-45.619,24.128-68.36,2.989-8.319,11.336-12.214,19.251-9.458,8.25,2.873,12.357,11.005,9.412,19.625-4.971,14.552-10.248,29-15.421,43.482-1.856,5.193-1.848,5.259,3.535,5.263,16.9.011,33.8-.063,50.694.052a14.522,14.522,0,0,1,13.759,8.86c2.692,5.723,1.947,11.294-2.1,16.2-3.17,3.842-7.465,5.441-12.388,5.443Q-890.022,337.147-909.188,337.141Z" transform="translate(0 -13.744)" fill="none" stroke="#acdee6" stroke-width="1"/>
    <path id="Path_8862" data-name="Path 8862" d="M-818.313,179.375a20.78,20.78,0,0,1,20.935-20.51,20.523,20.523,0,0,1,20.246,20.7,20.549,20.549,0,0,1-20.634,20.713A20.8,20.8,0,0,1-818.313,179.375Z" transform="translate(-25.315 0)" fill="none" stroke="#acdee6" stroke-width="1"/>
    <path id="Path_8863" data-name="Path 8863" d="M-903.5,179.443a20.774,20.774,0,0,1,20.46-20.523,20.524,20.524,0,0,1,20.7,20.626A20.564,20.564,0,0,1-882.923,200.3,20.816,20.816,0,0,1-903.5,179.443Z" transform="translate(-10.394 -0.01)" fill="none" stroke="#acdee6" stroke-width="1"/>
  </g>
</svg>
