<svg xmlns="http://www.w3.org/2000/svg" width="116.456" height="121.023" viewBox="0 0 116.456 121.023">
  <g id="Group_4271" data-name="Group 4271" transform="translate(-846.927 279.386) rotate(180)">
    <path id="Path_8860" data-name="Path 8860" d="M-866.247,320.221q-7.431,0-14.861,0c-6.041-.007-9.635-3.112-9.6-8.281.035-5.028,3.68-8.154,9.524-8.156,9.464,0,18.927.051,28.39-.014A29.186,29.186,0,0,0-825.2,265.327a22.144,22.144,0,0,0-20.721-15.293c-9.758-.111-19.518,0-29.277-.05-4.809-.024-8.379-3.36-8.549-7.828-.164-4.31,2.826-8.318,7.119-8.427,11.892-.3,23.873-1.16,35.669.328,17.892,2.256,31.1,16.311,33.257,34.257,2.1,17.454-4,31.681-17.6,42.6-7.735,6.208-16.846,9.079-26.75,9.292C-856.782,320.3-861.516,320.22-866.247,320.221Z" transform="translate(-40.135 -41.362)" fill="none" stroke="#acdee6" stroke-width="1"/>
    <path id="Path_8861" data-name="Path 8861" d="M-933.987,291.015c-6.65,0-13.3.013-19.95,0s-10.461-5.088-8.307-11.351c4.228-12.29,8.583-24.536,12.977-36.767a8.03,8.03,0,0,1,10.354-5.087,8.02,8.02,0,0,1,5.063,10.555c-2.674,7.827-5.512,15.6-8.294,23.387-1,2.793-.994,2.829,1.9,2.831,9.089.006,18.177-.034,27.266.028a7.811,7.811,0,0,1,7.4,4.766,7.732,7.732,0,0,1-1.131,8.714,8.2,8.2,0,0,1-6.663,2.928Q-923.678,291.018-933.987,291.015Z" transform="translate(0 -43.657)" fill="none" stroke="#acdee6" stroke-width="1"/>
    <path id="Path_8862" data-name="Path 8862" d="M-818.313,169.9a11.176,11.176,0,0,1,11.26-11.031A11.038,11.038,0,0,1-796.164,170a11.052,11.052,0,0,1-11.1,11.14A11.187,11.187,0,0,1-818.313,169.9Z" transform="translate(-80.412 0)" fill="none" stroke="#acdee6" stroke-width="1"/>
    <path id="Path_8863" data-name="Path 8863" d="M-903.5,169.958a11.173,11.173,0,0,1,11-11.038,11.039,11.039,0,0,1,11.133,11.093,11.06,11.06,0,0,1-11.07,11.162A11.2,11.2,0,0,1-903.5,169.958Z" transform="translate(-33.018 -0.031)" fill="none" stroke="#acdee6" stroke-width="1"/>
  </g>
</svg>
