<svg xmlns="http://www.w3.org/2000/svg" xmlns:xlink="http://www.w3.org/1999/xlink" width="65" height="64" viewBox="0 0 65 64">
  <defs>
    <filter id="Ellipse_5" x="-9" y="-6" width="82" height="82" filterUnits="userSpaceOnUse">
      <feOffset dy="3" input="SourceAlpha"/>
      <feGaussianBlur stdDeviation="3" result="blur"/>
      <feFlood flood-opacity="0.161"/>
      <feComposite operator="in" in2="blur"/>
      <feComposite in="SourceGraphic"/>
    </filter>
    <clipPath id="clip-path">
      <g transform="matrix(1, 0, 0, 1, 0, 0)" filter="url(#Ellipse_5)">
        <circle id="Ellipse_5-2" data-name="Ellipse 5" cx="32" cy="32" r="32" transform="translate(-1)" fill="#9046f3"/>
      </g>
    </clipPath>
  </defs>
  <g id="Group_2105" data-name="Group 2105" transform="translate(-270 -111)">
    <circle id="Ellipse_2" data-name="Ellipse 2" cx="32" cy="32" r="32" transform="translate(271 111)" fill="#edeae6"/>
    <g id="Mask_Group_1" data-name="Mask Group 1" transform="translate(271 111)" clip-path="url(#clip-path)">
      <g id="Group_1349" data-name="Group 1349" transform="translate(4.227 15.075)">
        <g id="Profile" transform="translate(-0.227 -0.075)">
          <path id="Union_1" data-name="Union 1" d="M0,57V45.577c0-7.588,12.375-13.8,27.5-13.8S55,37.989,55,45.577V57ZM15.553,11.988A11.947,11.947,0,1,1,27.5,23.976,11.968,11.968,0,0,1,15.553,11.988Z" transform="translate(0 0)" fill="#9046f3"/>
        </g>
      </g>
    </g>
  </g>
</svg>
