<svg xmlns="http://www.w3.org/2000/svg" width="18" height="13.511" viewBox="0 0 18 13.511">
  <g id="Group_4175" data-name="Group 4175" transform="translate(1886 -3021.914)">
    <path id="Path_3436" data-name="Path 3436" d="M-1886,3062.09a3.106,3.106,0,0,1,.592-.143c.458-.021.918-.007,1.449-.007-.271.5-.511.954-.771,1.4a.342.342,0,0,1-.252.1,1.341,1.341,0,0,1-1.018-.445Z" transform="translate(0 -37.019)" fill="#302f2f"/>
    <path id="Path_3437" data-name="Path 3437" d="M-1671.211,3062.83l-.187.167a.764.764,0,0,1-1.306-.2c-.171-.315-.338-.632-.551-1.029.723.1,1.4-.152,2.044.167Z" transform="translate(-196.789 -36.86)" fill="#302f2f"/>
    <path id="Path_3438" data-name="Path 3438" d="M-1863.254,3033.937H-1873c0,.261.007.507,0,.753a.707.707,0,0,1-.736.728c-.387.009-.775.01-1.162,0a.678.678,0,0,1-.717-.739,6.136,6.136,0,0,0-.444-2.545,5.354,5.354,0,0,1,.365-4.557c.726-1.323,1.482-2.631,2.2-3.96a2.667,2.667,0,0,1,2.226-1.529,26.588,26.588,0,0,1,6.758.083,2,2,0,0,1,1.506,1.055q1.342,2.379,2.659,4.772a3.89,3.89,0,0,1,.323.914,5.294,5.294,0,0,1-.189,3.312,5.522,5.522,0,0,0-.417,2.4.7.7,0,0,1-.776.8c-.362,0-.725.007-1.087,0a.71.71,0,0,1-.754-.748C-1863.259,3034.436-1863.254,3034.2-1863.254,3033.937Zm.373-7.531c-.407-.766-.774-1.456-1.141-2.148a1.263,1.263,0,0,0-1.012-.677,20.517,20.517,0,0,0-5.34-.1c-1.584.184-1.587.191-2.327,1.6-.222.422-.411.862-.637,1.34A38.933,38.933,0,0,0-1862.881,3026.405Zm-5.26,4.515c.811,0,1.621,0,2.432,0,.282,0,.566-.037.555-.391-.009-.326-.282-.36-.55-.36q-2.432,0-4.863,0c-.271,0-.535.044-.537.373s.261.379.532.378Q-1869.357,3030.918-1868.141,3030.92Zm-4.5-1.126a1.118,1.118,0,0,0-1.122-1.111,1.119,1.119,0,0,0-1.1,1.094,1.119,1.119,0,0,0,1.1,1.13A1.119,1.119,0,0,0-1872.642,3029.794Zm10.143,1.113a1.119,1.119,0,0,0,1.107-1.126,1.119,1.119,0,0,0-1.1-1.1,1.118,1.118,0,0,0-1.126,1.107A1.118,1.118,0,0,0-1862.5,3030.907Z" transform="translate(-8.871)" fill="#302f2f"/>
  </g>
</svg>
