<svg id="Group_2107" data-name="Group 2107" xmlns="http://www.w3.org/2000/svg" width="18.928" height="16" viewBox="0 0 18.928 16">
  <path id="Path_3197" data-name="Path 3197" d="M742.223,442.081c0,1.184,0,2.368,0,3.551a.162.162,0,0,0,.135.189,3.223,3.223,0,0,1,2.368,2.655,3.112,3.112,0,0,1-.57,2.429,3.225,3.225,0,0,1-1.83,1.276c-.089.025-.1.065-.1.141,0,.442,0,.884,0,1.325,0,.3-.134.434-.431.434-.214,0-.428,0-.642,0a.349.349,0,0,1-.381-.4q0-.683,0-1.366a.113.113,0,0,0-.1-.132,3.234,3.234,0,0,1-2.422-2.715,3.137,3.137,0,0,1,.769-2.636,3.191,3.191,0,0,1,1.635-1.029c.1-.027.117-.069.116-.159q0-3.572,0-7.145c0-.279.127-.413.4-.415.223,0,.446,0,.669,0a.359.359,0,0,1,.383.4c0,.56,0,1.12,0,1.68Zm-.73,8.729a1.818,1.818,0,1,0-1.83-1.8A1.825,1.825,0,0,0,741.493,450.81Z" transform="translate(-732.027 -438.083)" fill="#7bdb24"/>
  <path id="Path_3198" data-name="Path 3198" d="M699.551,446.038a3.316,3.316,0,0,1,0-6.451c0-.352,0-.707,0-1.062,0-.3.129-.432.429-.433.219,0,.437,0,.656,0a.344.344,0,0,1,.366.368c0,.337.006.674,0,1.011a.131.131,0,0,0,.12.157,3.313,3.313,0,0,1,2.391,2.684,3.245,3.245,0,0,1-1.082,2.984,2.92,2.92,0,0,1-1.271.689c-.126.032-.159.087-.158.213q.009,1.961,0,3.922c0,.774-.007,1.548-.008,2.322,0,.41.006.82.006,1.229,0,.289-.127.413-.417.414-.219,0-.437,0-.656,0a.356.356,0,0,1-.38-.373c0-.046,0-.091,0-.137v-7.536Zm2.544-3.216a1.817,1.817,0,1,0-1.856,1.808A1.817,1.817,0,0,0,702.094,442.821Z" transform="translate(-697.002 -438.086)" fill="#7bdb24"/>
  <path id="Path_3199" data-name="Path 3199" d="M783.508,442.47a3.291,3.291,0,0,1,2.5,2.692,3.109,3.109,0,0,1-.3,2.011,3.237,3.237,0,0,1-1.319,1.395,4.686,4.686,0,0,1-.75.311c-.1.035-.131.073-.131.177q.005,2.289,0,4.577c0,.3-.124.426-.419.427-.209,0-.419,0-.628,0a.354.354,0,0,1-.4-.4q0-2.295,0-4.59c0-.106-.02-.154-.133-.188a3.2,3.2,0,0,1-2.292-2.294,3.17,3.17,0,0,1,.547-2.878,3.252,3.252,0,0,1,1.775-1.2c.084-.024.1-.061.1-.141,0-1.293,0-2.586-.005-3.879a.39.39,0,0,1,.426-.427c.213.017.428,0,.642,0a.354.354,0,0,1,.386.392q0,1.926,0,3.853Zm-.725,1.417a1.817,1.817,0,1,0,1.818,1.806A1.808,1.808,0,0,0,782.783,443.887Z" transform="translate(-767.133 -438.062)" fill="#7bdb24"/>
</svg>
