<svg xmlns="http://www.w3.org/2000/svg" width="12.817" height="12.815" viewBox="0 0 12.817 12.815">
  <g id="Group_2104" data-name="Group 2104" transform="translate(0 0)">
    <path id="Path_1644" data-name="Path 1644" d="M233.285-194.906c-.182,0-.364,0-.546,0a.789.789,0,0,1-.8-.665q-.071-.381-.126-.766a.19.19,0,0,0-.144-.174c-.223-.08-.441-.177-.658-.272a.114.114,0,0,0-.132.012c-.215.156-.432.309-.65.462a.764.764,0,0,1-1.034-.044c-.3-.275-.589-.569-.865-.871a.74.74,0,0,1-.063-.915c.157-.24.328-.47.5-.7a.136.136,0,0,0,.014-.16q-.157-.348-.3-.7a.135.135,0,0,0-.117-.1c-.3-.052-.608-.1-.907-.166a.758.758,0,0,1-.575-.717q-.011-.6,0-1.2a.793.793,0,0,1,.691-.755c.262-.041.525-.084.786-.132a.151.151,0,0,0,.092-.08c.1-.244.2-.492.3-.735a.124.124,0,0,0-.018-.141q-.237-.327-.468-.659a.764.764,0,0,1,.046-1.011c.284-.308.586-.6.9-.885a.743.743,0,0,1,.9-.057c.242.16.475.334.71.5a.129.129,0,0,0,.15.018q.353-.159.713-.3a.135.135,0,0,0,.1-.118c.051-.3.1-.6.162-.9a.761.761,0,0,1,.721-.584q.6-.011,1.2,0a.788.788,0,0,1,.75.671c.045.262.089.524.129.786a.141.141,0,0,0,.107.122c.247.1.492.2.736.3a.131.131,0,0,0,.151-.013q.322-.236.65-.463a.762.762,0,0,1,1.01.047c.307.28.6.579.879.886a.738.738,0,0,1,.058.906c-.156.24-.327.471-.5.7a.153.153,0,0,0-.014.178c.1.22.193.442.275.668a.188.188,0,0,0,.172.135c.283.046.566.09.846.15a.754.754,0,0,1,.578.7c.008.409.009.819,0,1.228a.783.783,0,0,1-.683.738c-.259.044-.517.087-.776.127a.15.15,0,0,0-.133.11c-.089.231-.182.461-.284.687a.153.153,0,0,0,.014.179q.231.312.451.632a.8.8,0,0,1-.1,1.084c-.275.275-.546.553-.833.815a.752.752,0,0,1-.908.057c-.241-.161-.476-.333-.711-.5a.132.132,0,0,0-.151-.014c-.227.1-.454.2-.686.285a.179.179,0,0,0-.131.162c-.045.283-.089.566-.15.846a.771.771,0,0,1-.737.592c-.2,0-.392,0-.588,0Zm5.693-6.409q0-.236,0-.473c0-.139-.014-.152-.15-.174-.331-.054-.661-.113-.993-.166a.39.39,0,0,1-.341-.311,3.932,3.932,0,0,0-.418-1.014.44.44,0,0,1,.035-.542c.2-.26.377-.53.569-.793a.128.128,0,0,0-.019-.2c-.236-.23-.469-.461-.7-.7a.131.131,0,0,0-.206-.013c-.267.2-.54.387-.808.584a.4.4,0,0,1-.478.035,2.232,2.232,0,0,0-.307-.159c-.257-.1-.516-.193-.776-.282a.4.4,0,0,1-.3-.315c-.059-.344-.117-.689-.171-1.034-.014-.093-.054-.132-.151-.131-.308,0-.616,0-.924,0-.2,0-.2,0-.229.2-.051.317-.109.634-.162.951a.4.4,0,0,1-.309.343,4.233,4.233,0,0,0-1.04.438.407.407,0,0,1-.488-.026c-.274-.2-.553-.393-.827-.593a.116.116,0,0,0-.179.015q-.348.357-.706.7a.133.133,0,0,0-.018.206c.195.265.379.538.576.8a.437.437,0,0,1,.034.534,4.049,4.049,0,0,0-.4.986.415.415,0,0,1-.409.354c-.318.048-.634.106-.952.156-.086.014-.127.05-.126.144q.006.5,0,1.008c0,.095.042.127.129.141.335.054.668.115,1,.168a.412.412,0,0,1,.365.326,3.979,3.979,0,0,0,.424,1.011.424.424,0,0,1-.027.515c-.2.264-.381.536-.575.8a.127.127,0,0,0,.011.2c.241.234.477.473.712.713a.119.119,0,0,0,.182.011c.266-.193.539-.377.8-.575a.448.448,0,0,1,.543-.042,4.131,4.131,0,0,0,1,.405.386.386,0,0,1,.3.336c.053.331.111.662.164.993.022.139.034.153.171.154h.956c.14,0,.151-.014.174-.151.054-.331.113-.661.166-.993a.39.39,0,0,1,.311-.341,3.949,3.949,0,0,0,1.014-.418.44.44,0,0,1,.542.035c.259.2.53.378.793.569a.122.122,0,0,0,.189-.01q.351-.361.712-.713a.124.124,0,0,0,.014-.19c-.194-.266-.378-.538-.574-.8a.43.43,0,0,1-.037-.524,4.085,4.085,0,0,0,.426-1.033.386.386,0,0,1,.337-.3c.328-.053.655-.111.983-.163.154-.024.165-.033.166-.193S238.978-201.161,238.978-201.315Z" transform="translate(-226.878 207.72)" fill="#edeae6"/>
    <path id="Path_1645" data-name="Path 1645" d="M403.293-34.26a2.761,2.761,0,0,1,2.757,2.769,2.758,2.758,0,0,1-2.767,2.757,2.765,2.765,0,0,1-2.758-2.766A2.768,2.768,0,0,1,403.293-34.26Zm2.037,2.763a2.045,2.045,0,0,0-2.045-2.04,2.044,2.044,0,0,0-2.038,2.037,2.045,2.045,0,0,0,2.039,2.046A2.045,2.045,0,0,0,405.329-31.5Z" transform="translate(-396.878 37.903)" fill="#edeae6"/>
  </g>
</svg>
